<mxfile host="app.diagrams.net" modified="2023-02-09T12:30:19.292Z" agent="5.0 (X11; Linux x86_64) AppleWebKit/537.36 (KHTML, like Gecko) Chrome/109.0.0.0 Safari/537.36" etag="R7yrKUx7l3COJcvM3xT2" version="20.8.18" type="github">
  <diagram name="Page-1" id="np63SpltwMIEviLflZVa">
    <mxGraphModel dx="2189" dy="1907" grid="1" gridSize="10" guides="1" tooltips="1" connect="1" arrows="1" fold="1" page="1" pageScale="1" pageWidth="827" pageHeight="1169" math="0" shadow="0">
      <root>
        <mxCell id="0" />
        <mxCell id="1" parent="0" />
        <mxCell id="h5fbct-_UIX1mktuHJP8-16" style="edgeStyle=orthogonalEdgeStyle;rounded=0;orthogonalLoop=1;jettySize=auto;html=1;exitX=1;exitY=0.25;exitDx=0;exitDy=0;entryX=0;entryY=0.25;entryDx=0;entryDy=0;" edge="1" parent="1" source="h5fbct-_UIX1mktuHJP8-1" target="h5fbct-_UIX1mktuHJP8-3">
          <mxGeometry relative="1" as="geometry" />
        </mxCell>
        <mxCell id="h5fbct-_UIX1mktuHJP8-43" style="edgeStyle=orthogonalEdgeStyle;rounded=0;orthogonalLoop=1;jettySize=auto;html=1;entryX=0.25;entryY=1;entryDx=0;entryDy=0;" edge="1" parent="1" source="h5fbct-_UIX1mktuHJP8-1" target="h5fbct-_UIX1mktuHJP8-9">
          <mxGeometry relative="1" as="geometry" />
        </mxCell>
        <mxCell id="h5fbct-_UIX1mktuHJP8-44" style="edgeStyle=orthogonalEdgeStyle;rounded=0;orthogonalLoop=1;jettySize=auto;html=1;entryX=0;entryY=0.629;entryDx=0;entryDy=0;entryPerimeter=0;" edge="1" parent="1" source="h5fbct-_UIX1mktuHJP8-1" target="h5fbct-_UIX1mktuHJP8-4">
          <mxGeometry relative="1" as="geometry" />
        </mxCell>
        <mxCell id="h5fbct-_UIX1mktuHJP8-46" style="edgeStyle=orthogonalEdgeStyle;rounded=0;orthogonalLoop=1;jettySize=auto;html=1;" edge="1" parent="1" source="h5fbct-_UIX1mktuHJP8-1" target="h5fbct-_UIX1mktuHJP8-5">
          <mxGeometry relative="1" as="geometry" />
        </mxCell>
        <mxCell id="h5fbct-_UIX1mktuHJP8-1" value="Ejbs&#xa;" style="swimlane;startSize=0;rotation=0;" vertex="1" parent="1">
          <mxGeometry x="-90" y="350" width="220" height="66.29" as="geometry" />
        </mxCell>
        <mxCell id="h5fbct-_UIX1mktuHJP8-17" style="edgeStyle=orthogonalEdgeStyle;rounded=0;orthogonalLoop=1;jettySize=auto;html=1;exitX=0;exitY=0.5;exitDx=0;exitDy=0;entryX=1;entryY=0.75;entryDx=0;entryDy=0;" edge="1" parent="1" source="h5fbct-_UIX1mktuHJP8-3" target="h5fbct-_UIX1mktuHJP8-1">
          <mxGeometry relative="1" as="geometry" />
        </mxCell>
        <mxCell id="h5fbct-_UIX1mktuHJP8-18" style="edgeStyle=orthogonalEdgeStyle;rounded=0;orthogonalLoop=1;jettySize=auto;html=1;exitX=1;exitY=0.25;exitDx=0;exitDy=0;entryX=0;entryY=0.25;entryDx=0;entryDy=0;" edge="1" parent="1" source="h5fbct-_UIX1mktuHJP8-3" target="h5fbct-_UIX1mktuHJP8-4">
          <mxGeometry relative="1" as="geometry" />
        </mxCell>
        <mxCell id="h5fbct-_UIX1mktuHJP8-31" style="edgeStyle=orthogonalEdgeStyle;rounded=0;orthogonalLoop=1;jettySize=auto;html=1;" edge="1" parent="1" source="h5fbct-_UIX1mktuHJP8-3" target="h5fbct-_UIX1mktuHJP8-5">
          <mxGeometry relative="1" as="geometry" />
        </mxCell>
        <mxCell id="h5fbct-_UIX1mktuHJP8-32" style="edgeStyle=orthogonalEdgeStyle;rounded=0;orthogonalLoop=1;jettySize=auto;html=1;" edge="1" parent="1" source="h5fbct-_UIX1mktuHJP8-3" target="h5fbct-_UIX1mktuHJP8-7">
          <mxGeometry relative="1" as="geometry" />
        </mxCell>
        <mxCell id="h5fbct-_UIX1mktuHJP8-3" value="Microservices&#xa;" style="swimlane;startSize=0;" vertex="1" parent="1">
          <mxGeometry x="400" y="360" width="200" height="60" as="geometry" />
        </mxCell>
        <mxCell id="h5fbct-_UIX1mktuHJP8-20" style="edgeStyle=orthogonalEdgeStyle;rounded=0;orthogonalLoop=1;jettySize=auto;html=1;entryX=0.595;entryY=1.067;entryDx=0;entryDy=0;entryPerimeter=0;" edge="1" parent="1" source="h5fbct-_UIX1mktuHJP8-4" target="h5fbct-_UIX1mktuHJP8-1">
          <mxGeometry relative="1" as="geometry" />
        </mxCell>
        <mxCell id="h5fbct-_UIX1mktuHJP8-47" style="edgeStyle=orthogonalEdgeStyle;rounded=0;orthogonalLoop=1;jettySize=auto;html=1;exitX=1;exitY=0.5;exitDx=0;exitDy=0;" edge="1" parent="1" source="h5fbct-_UIX1mktuHJP8-4" target="h5fbct-_UIX1mktuHJP8-3">
          <mxGeometry relative="1" as="geometry" />
        </mxCell>
        <mxCell id="h5fbct-_UIX1mktuHJP8-4" value="DBs" style="swimlane;startSize=0;" vertex="1" parent="1">
          <mxGeometry x="530" y="540" width="200" height="70" as="geometry" />
        </mxCell>
        <mxCell id="h5fbct-_UIX1mktuHJP8-29" style="edgeStyle=orthogonalEdgeStyle;rounded=0;orthogonalLoop=1;jettySize=auto;html=1;entryX=0.915;entryY=0.003;entryDx=0;entryDy=0;entryPerimeter=0;" edge="1" parent="1" source="h5fbct-_UIX1mktuHJP8-5" target="h5fbct-_UIX1mktuHJP8-1">
          <mxGeometry relative="1" as="geometry" />
        </mxCell>
        <mxCell id="h5fbct-_UIX1mktuHJP8-30" style="edgeStyle=orthogonalEdgeStyle;rounded=0;orthogonalLoop=1;jettySize=auto;html=1;exitX=1;exitY=0.5;exitDx=0;exitDy=0;entryX=0.1;entryY=0;entryDx=0;entryDy=0;entryPerimeter=0;" edge="1" parent="1" source="h5fbct-_UIX1mktuHJP8-5" target="h5fbct-_UIX1mktuHJP8-3">
          <mxGeometry relative="1" as="geometry" />
        </mxCell>
        <mxCell id="h5fbct-_UIX1mktuHJP8-5" value="bff&#xa;" style="swimlane;startSize=0;" vertex="1" parent="1">
          <mxGeometry x="330" y="190" width="100" height="80" as="geometry" />
        </mxCell>
        <mxCell id="h5fbct-_UIX1mktuHJP8-33" style="edgeStyle=orthogonalEdgeStyle;rounded=0;orthogonalLoop=1;jettySize=auto;html=1;entryX=0.8;entryY=0;entryDx=0;entryDy=0;entryPerimeter=0;" edge="1" parent="1" source="h5fbct-_UIX1mktuHJP8-7" target="h5fbct-_UIX1mktuHJP8-3">
          <mxGeometry relative="1" as="geometry" />
        </mxCell>
        <mxCell id="h5fbct-_UIX1mktuHJP8-7" value="bff&#xa;" style="swimlane;startSize=0;" vertex="1" parent="1">
          <mxGeometry x="500" y="190" width="100" height="80" as="geometry" />
        </mxCell>
        <mxCell id="h5fbct-_UIX1mktuHJP8-8" value="bff&#xa;" style="swimlane;startSize=0;" vertex="1" parent="1">
          <mxGeometry x="660" y="180" width="100" height="80" as="geometry" />
        </mxCell>
        <mxCell id="h5fbct-_UIX1mktuHJP8-26" style="edgeStyle=orthogonalEdgeStyle;rounded=0;orthogonalLoop=1;jettySize=auto;html=1;exitX=1;exitY=0.5;exitDx=0;exitDy=0;entryX=0.789;entryY=0.02;entryDx=0;entryDy=0;entryPerimeter=0;" edge="1" parent="1" source="h5fbct-_UIX1mktuHJP8-9" target="h5fbct-_UIX1mktuHJP8-1">
          <mxGeometry relative="1" as="geometry" />
        </mxCell>
        <mxCell id="h5fbct-_UIX1mktuHJP8-34" style="edgeStyle=orthogonalEdgeStyle;rounded=0;orthogonalLoop=1;jettySize=auto;html=1;" edge="1" parent="1" source="h5fbct-_UIX1mktuHJP8-9">
          <mxGeometry relative="1" as="geometry">
            <mxPoint x="190" y="50" as="targetPoint" />
          </mxGeometry>
        </mxCell>
        <mxCell id="h5fbct-_UIX1mktuHJP8-9" value="bff&#xa;" style="swimlane;startSize=0;" vertex="1" parent="1">
          <mxGeometry x="-10" y="140" width="100" height="80" as="geometry" />
        </mxCell>
        <mxCell id="h5fbct-_UIX1mktuHJP8-40" style="edgeStyle=orthogonalEdgeStyle;rounded=0;orthogonalLoop=1;jettySize=auto;html=1;" edge="1" parent="1" source="h5fbct-_UIX1mktuHJP8-10">
          <mxGeometry relative="1" as="geometry">
            <mxPoint x="300" as="targetPoint" />
          </mxGeometry>
        </mxCell>
        <mxCell id="h5fbct-_UIX1mktuHJP8-41" style="edgeStyle=orthogonalEdgeStyle;rounded=0;orthogonalLoop=1;jettySize=auto;html=1;exitX=0;exitY=0.3333333333333333;exitDx=0;exitDy=0;exitPerimeter=0;entryX=0.992;entryY=0.663;entryDx=0;entryDy=0;entryPerimeter=0;" edge="1" parent="1" source="h5fbct-_UIX1mktuHJP8-10" target="h5fbct-_UIX1mktuHJP8-12">
          <mxGeometry relative="1" as="geometry" />
        </mxCell>
        <mxCell id="h5fbct-_UIX1mktuHJP8-10" value="Actor" style="shape=umlActor;verticalLabelPosition=bottom;verticalAlign=top;html=1;outlineConnect=0;" vertex="1" parent="1">
          <mxGeometry x="260" y="20" width="30" height="60" as="geometry" />
        </mxCell>
        <mxCell id="h5fbct-_UIX1mktuHJP8-35" style="edgeStyle=orthogonalEdgeStyle;rounded=0;orthogonalLoop=1;jettySize=auto;html=1;entryX=0.9;entryY=0;entryDx=0;entryDy=0;entryPerimeter=0;" edge="1" parent="1" source="h5fbct-_UIX1mktuHJP8-11" target="h5fbct-_UIX1mktuHJP8-5">
          <mxGeometry relative="1" as="geometry" />
        </mxCell>
        <mxCell id="h5fbct-_UIX1mktuHJP8-36" style="edgeStyle=orthogonalEdgeStyle;rounded=0;orthogonalLoop=1;jettySize=auto;html=1;entryX=1;entryY=0;entryDx=0;entryDy=0;" edge="1" parent="1" source="h5fbct-_UIX1mktuHJP8-11" target="h5fbct-_UIX1mktuHJP8-9">
          <mxGeometry relative="1" as="geometry">
            <Array as="points">
              <mxPoint x="40" y="20" />
              <mxPoint x="40" y="140" />
            </Array>
          </mxGeometry>
        </mxCell>
        <mxCell id="h5fbct-_UIX1mktuHJP8-37" style="edgeStyle=orthogonalEdgeStyle;rounded=0;orthogonalLoop=1;jettySize=auto;html=1;entryX=0.63;entryY=-0.062;entryDx=0;entryDy=0;entryPerimeter=0;" edge="1" parent="1" source="h5fbct-_UIX1mktuHJP8-11" target="h5fbct-_UIX1mktuHJP8-8">
          <mxGeometry relative="1" as="geometry" />
        </mxCell>
        <mxCell id="h5fbct-_UIX1mktuHJP8-42" style="edgeStyle=orthogonalEdgeStyle;rounded=0;orthogonalLoop=1;jettySize=auto;html=1;" edge="1" parent="1" source="h5fbct-_UIX1mktuHJP8-11" target="h5fbct-_UIX1mktuHJP8-10">
          <mxGeometry relative="1" as="geometry" />
        </mxCell>
        <mxCell id="h5fbct-_UIX1mktuHJP8-11" value="Web Client" style="shape=callout;whiteSpace=wrap;html=1;perimeter=calloutPerimeter;" vertex="1" parent="1">
          <mxGeometry x="310" y="-20" width="120" height="80" as="geometry" />
        </mxCell>
        <mxCell id="h5fbct-_UIX1mktuHJP8-12" value="Samsung &amp;gt; iPhone" style="shape=hexagon;perimeter=hexagonPerimeter2;whiteSpace=wrap;html=1;fixedSize=1;" vertex="1" parent="1">
          <mxGeometry x="120" y="-40" width="120" height="80" as="geometry" />
        </mxCell>
        <mxCell id="h5fbct-_UIX1mktuHJP8-38" style="edgeStyle=orthogonalEdgeStyle;rounded=0;orthogonalLoop=1;jettySize=auto;html=1;entryX=0.75;entryY=0;entryDx=0;entryDy=0;" edge="1" parent="1" source="h5fbct-_UIX1mktuHJP8-13" target="h5fbct-_UIX1mktuHJP8-5">
          <mxGeometry relative="1" as="geometry" />
        </mxCell>
        <mxCell id="h5fbct-_UIX1mktuHJP8-39" style="edgeStyle=orthogonalEdgeStyle;rounded=0;orthogonalLoop=1;jettySize=auto;html=1;entryX=0.61;entryY=0.025;entryDx=0;entryDy=0;entryPerimeter=0;" edge="1" parent="1" source="h5fbct-_UIX1mktuHJP8-13" target="h5fbct-_UIX1mktuHJP8-7">
          <mxGeometry relative="1" as="geometry" />
        </mxCell>
        <mxCell id="h5fbct-_UIX1mktuHJP8-13" value="Other API" style="ellipse;whiteSpace=wrap;html=1;" vertex="1" parent="1">
          <mxGeometry x="540" y="-90" width="120" height="80" as="geometry" />
        </mxCell>
      </root>
    </mxGraphModel>
  </diagram>
</mxfile>
